<svg xmlns="http://www.w3.org/2000/svg" width="150" height="150" fill="none"><path fill="#F8F8F8" stroke="#29166E" stroke-linejoin="round" stroke-miterlimit="1.305" stroke-width="3" d="M147.573 1.5 75 146.646 2.427 1.5z"/><path fill="#29166E" d="M72.914 99h-7.43l.047-5.484h7.383q2.765 0 4.664-1.243 1.899-1.265 2.86-3.68.984-2.413.984-5.835v-1.664q0-2.626-.563-4.617-.538-1.993-1.617-3.352a6.77 6.77 0 0 0-2.648-2.04q-1.57-.702-3.61-.702h-7.64v-5.508h7.64q3.423 0 6.258 1.172a14.1 14.1 0 0 1 4.945 3.305q2.086 2.156 3.211 5.156 1.149 2.976 1.149 6.633v1.617q0 3.633-1.149 6.633-1.125 3-3.21 5.156-2.064 2.133-4.946 3.305Q76.383 99 72.914 99M69.47 64.875V99h-7.031V64.875z"/><path fill="#C3251D" d="M50.406 29.875V64h-7.031V29.875zM64 44.453v5.484H48.484v-5.484zm1.64-14.578v5.508H48.485v-5.508z"/><path fill="#C3251D" d="M50.406 29.875V64h-7.031V29.875zM64 44.453v5.484H48.484v-5.484zm1.64-14.578v5.508H48.485v-5.508zM98.422 29.875V64h-7.008V29.875zm10.5 0v5.508H81.078v-5.508z"/><circle cx="19" cy="11" r="3.75" fill="#EBEBEB" stroke="silver" stroke-width=".5" transform="rotate(-50 19 11)"/><rect width="1.143" height="8" x="16.867" y="14.431" fill="silver" rx=".571" transform="rotate(-140 16.867 14.431)"/><circle cx="131" cy="12" r="3.75" fill="#EBEBEB" stroke="silver" stroke-width=".5" transform="rotate(50 131 12)"/><rect width="1.143" height="8" x="127.991" y="9.303" fill="silver" rx=".571" transform="rotate(-40 127.991 9.303)"/><circle cx="75" cy="127" r="3.75" fill="#EBEBEB" stroke="silver" stroke-width=".5" transform="rotate(-90 75 127)"/><rect width="1.143" height="8" x="75.571" y="131" fill="silver" rx=".571" transform="rotate(180 75.571 131)"/></svg>