<svg xmlns="http://www.w3.org/2000/svg" width="376" height="150" fill="none"><path stroke="#29166E" stroke-linejoin="round" stroke-miterlimit="1.305" stroke-width="3" d="M147.573 1.5 75 146.646 2.427 1.5z"/><path fill="#29166E" d="M72.914 99h-7.43l.047-5.484h7.383q2.765 0 4.664-1.243 1.899-1.265 2.86-3.68.984-2.413.984-5.835v-1.664q0-2.626-.563-4.617-.538-1.993-1.617-3.352a6.77 6.77 0 0 0-2.648-2.04q-1.57-.702-3.61-.702h-7.64v-5.508h7.64q3.423 0 6.258 1.172a14.1 14.1 0 0 1 4.945 3.305q2.086 2.156 3.211 5.156 1.149 2.976 1.149 6.633v1.617q0 3.633-1.149 6.633-1.125 3-3.21 5.156-2.064 2.133-4.946 3.305Q76.383 99 72.914 99M69.47 64.875V99h-7.031V64.875z"/><path fill="#C3251D" d="M50.406 29.875V64h-7.031V29.875zM64 44.453v5.484H48.484v-5.484zm1.64-14.578v5.508H48.485v-5.508zM98.422 29.875V64h-7.008V29.875zm10.5 0v5.508H81.078v-5.508z"/><circle cx="19" cy="11" r="3.75" fill="#EDEDED" stroke="#D9D9D9" stroke-width=".5" transform="rotate(-50 19 11)"/><rect width="1.143" height="8" x="16.867" y="14.431" fill="#D9D9D9" rx=".571" transform="rotate(-140 16.867 14.431)"/><circle cx="131" cy="12" r="3.75" fill="#EDEDED" stroke="#D9D9D9" stroke-width=".5" transform="rotate(50 131 12)"/><rect width="1.143" height="8" x="127.991" y="9.303" fill="#D9D9D9" rx=".571" transform="rotate(-40 127.991 9.303)"/><circle cx="75" cy="127" r="3.75" fill="#EDEDED" stroke="#D9D9D9" stroke-width=".5" transform="rotate(-90 75 127)"/><rect width="1.143" height="8" x="75.571" y="131" fill="#D9D9D9" rx=".571" transform="rotate(180 75.571 131)"/><path fill="#C3251D" d="M151.559 41.406V67h-5.274V41.406zm10.195 10.934v4.113h-11.637V52.34zm1.23-10.934v4.131h-12.867v-4.13zm56.76 0V67h-5.256V41.406zm7.875 0v4.131h-20.883v-4.13z"/><path fill="#29166E" d="M183.217 62.887V67h-13.623v-4.113zm-11.901-21.48V67h-5.273V41.406zm10.125 10.423v4.008h-11.847V51.83zm1.758-10.424v4.131h-13.605v-4.13zm3.094 0h9.545q2.936 0 5.045.88 2.127.878 3.269 2.6 1.143 1.724 1.143 4.237 0 2.057-.703 3.533a6.6 6.6 0 0 1-1.951 2.444q-1.248.966-2.936 1.547l-1.67.878h-8.297l-.035-4.113h6.17q1.388 0 2.303-.492a3.23 3.23 0 0 0 1.371-1.371q.474-.879.474-2.04 0-1.23-.457-2.126a3.08 3.08 0 0 0-1.388-1.371q-.932-.475-2.338-.475h-4.272V67h-5.273zM200.602 67l-5.836-11.408 5.572-.035 5.906 11.197V67zm38.531-21.217L232.172 67h-5.608l9.51-25.594h3.569zM244.916 67l-6.978-21.217-.563-4.377h3.604L250.541 67zm-.316-9.527v4.13h-13.518v-4.13zm18.334-1.705h-6.575l-.035-3.621h5.52q1.458 0 2.39-.37.931-.387 1.389-1.107.475-.738.475-1.793 0-1.196-.457-1.934-.44-.739-1.389-1.072-.932-.334-2.408-.334h-3.656V67h-5.274V41.406h8.93q2.232 0 3.99.422 1.776.422 3.006 1.283 1.23.862 1.881 2.18.65 1.301.65 3.094 0 1.582-.721 2.918-.702 1.335-2.232 2.18-1.512.843-3.955.931zM262.705 67h-7.787l2.057-4.113h5.73q1.389 0 2.268-.44.879-.457 1.3-1.23.423-.774.422-1.776 0-1.125-.386-1.95a2.6 2.6 0 0 0-1.196-1.266q-.826-.457-2.179-.457h-5.08l.035-3.621h6.328l1.213 1.423q2.337-.035 3.761.827 1.442.843 2.092 2.197.668 1.353.668 2.9 0 2.46-1.072 4.149-1.072 1.669-3.147 2.513-2.056.844-5.027.844M134.143 107h-5.573l.035-4.113h5.538q2.073 0 3.498-.932 1.424-.95 2.144-2.76.738-1.81.738-4.377V93.57q0-1.968-.421-3.463-.405-1.494-1.213-2.513a5.07 5.07 0 0 0-1.987-1.53q-1.177-.527-2.707-.527h-5.73v-4.13h5.73q2.567 0 4.694.878 2.144.86 3.709 2.479 1.564 1.617 2.408 3.867.861 2.232.861 4.975v1.212q0 2.725-.861 4.975-.844 2.25-2.408 3.867-1.548 1.6-3.709 2.479-2.145.861-4.746.861m-2.584-25.594V107h-5.274V81.406zm23.748 0V107h-5.256V81.406zm18.263 18.897q0-.685-.211-1.23-.194-.564-.738-1.02-.545-.475-1.529-.932t-2.549-.95a32 32 0 0 1-3.305-1.265 13.6 13.6 0 0 1-2.742-1.635 7.4 7.4 0 0 1-1.863-2.197q-.668-1.248-.668-2.9 0-1.6.703-2.9a6.7 6.7 0 0 1 1.969-2.25q1.265-.95 2.988-1.46 1.74-.51 3.814-.51 2.83 0 4.94 1.02t3.269 2.795q1.178 1.776 1.178 4.06h-5.238q0-1.125-.475-1.968-.456-.86-1.406-1.354-.932-.492-2.355-.492-1.371 0-2.286.422-.914.405-1.371 1.107a2.73 2.73 0 0 0-.457 1.547q0 .651.317 1.178.333.528.984.984.65.457 1.6.862.949.405 2.197.79 2.091.634 3.674 1.425 1.6.79 2.672 1.775a6.6 6.6 0 0 1 1.617 2.233q.545 1.247.545 2.83 0 1.67-.651 2.988a6.1 6.1 0 0 1-1.881 2.232q-1.23.915-2.935 1.389-1.705.475-3.815.475a14.4 14.4 0 0 1-3.744-.493 11.4 11.4 0 0 1-3.357-1.529 7.7 7.7 0 0 1-2.391-2.601q-.896-1.582-.896-3.745h5.291q0 1.196.369 2.022a3.4 3.4 0 0 0 1.037 1.336q.686.51 1.617.738a9 9 0 0 0 2.074.229q1.373 0 2.25-.387.897-.387 1.319-1.072.44-.686.439-1.547m20.303-18.897V107h-5.256V81.406zm7.875 0v4.131h-20.883v-4.13zm3.006 0h9.545q2.936 0 5.045.88 2.127.878 3.269 2.6 1.143 1.724 1.143 4.237 0 2.057-.703 3.533a6.6 6.6 0 0 1-1.951 2.444q-1.248.966-2.936 1.547l-1.67.878h-8.297l-.035-4.113h6.17q1.388 0 2.303-.492a3.23 3.23 0 0 0 1.371-1.371q.474-.879.474-2.04 0-1.23-.457-2.126a3.08 3.08 0 0 0-1.388-1.371q-.932-.475-2.338-.475h-4.272V107h-5.273zM219.062 107l-5.835-11.408 5.572-.035 5.906 11.197V107zm14.362-25.594V107h-5.256V81.406zm14.959 14.362h-6.574l-.036-3.621h5.52q1.459 0 2.391-.37.932-.387 1.388-1.107.475-.738.475-1.793 0-1.195-.457-1.934-.44-.738-1.389-1.072-.932-.334-2.408-.334h-3.656V107h-5.274V81.406h8.93q2.232 0 3.99.422 1.776.422 3.006 1.283 1.23.862 1.881 2.18.65 1.3.65 3.094 0 1.581-.72 2.918-.703 1.335-2.233 2.18-1.512.843-3.955.931zM248.154 107h-7.787l2.057-4.113h5.73q1.389 0 2.268-.44.879-.457 1.301-1.23.422-.774.422-1.776 0-1.125-.387-1.95a2.6 2.6 0 0 0-1.196-1.266q-.826-.457-2.179-.457h-5.08l.035-3.621h6.328l1.213 1.423q2.338-.035 3.762.827 1.441.843 2.091 2.197.668 1.353.668 2.9 0 2.462-1.072 4.149-1.073 1.67-3.146 2.513-2.056.844-5.028.844m27.334-25.594h5.256v16.91q0 2.953-1.265 4.975-1.25 2.022-3.463 3.041-2.198 1.02-5.063 1.02t-5.098-1.02q-2.214-1.02-3.48-3.041-1.248-2.022-1.248-4.975v-16.91h5.273v16.91q0 1.723.545 2.813.546 1.09 1.565 1.6 1.037.509 2.443.509 1.442 0 2.443-.509 1.02-.51 1.547-1.6.545-1.09.545-2.813zm28.108 21.481V107h-18.141v-4.113zm-.264-18.545L287.793 107h-3.709v-3.023l15.662-22.57h3.586zm-1.811-2.936v4.131h-17.419v-4.13zm11.04 0V107h-5.256V81.406zm25.962 12.2v1.212q0 2.919-.791 5.239-.79 2.32-2.232 3.955a9.7 9.7 0 0 1-3.445 2.478q-1.987.862-4.412.862-2.409 0-4.413-.862a9.9 9.9 0 0 1-3.445-2.478q-1.459-1.635-2.267-3.955-.792-2.32-.791-5.239v-1.212q0-2.937.791-5.239.79-2.32 2.232-3.955a9.8 9.8 0 0 1 3.445-2.496q2.004-.861 4.412-.861 2.426 0 4.413.861a9.6 9.6 0 0 1 3.445 2.496q1.46 1.635 2.25 3.955.808 2.302.808 5.239m-5.326 1.212V93.57q0-2.039-.369-3.586t-1.09-2.601-1.758-1.582q-1.036-.546-2.373-.545-1.335 0-2.373.545-1.018.527-1.74 1.582-.703 1.054-1.072 2.601-.369 1.548-.369 3.586v1.248q0 2.022.369 3.586.369 1.548 1.09 2.619.72 1.056 1.758 1.6 1.036.545 2.373.545 1.335 0 2.373-.545 1.036-.544 1.74-1.6.703-1.071 1.072-2.619.369-1.564.369-3.586m29.953-13.412V107h-5.273l-10.283-17.156V107h-5.274V81.406h5.274l10.301 17.174V81.406zm10.196 0V107h-5.256V81.406z"/></svg>