<svg width="20" height="20" viewBox="0 0 20 20" fill="none" xmlns="http://www.w3.org/2000/svg">
<path d="M2.83211 19.2929C2.44158 19.6834 1.80842 19.6834 1.41789 19.2929L0.707107 18.5821C0.316583 18.1916 0.316583 17.5584 0.707107 17.1679L7.52145 10.3536C7.71671 10.1583 7.71671 9.84171 7.52145 9.64645L0.707107 2.83211C0.316583 2.44158 0.316583 1.80842 0.707107 1.41789L1.41789 0.707107C1.80842 0.316583 2.44158 0.316583 2.83211 0.707107L9.64645 7.52145C9.84171 7.71671 10.1583 7.71671 10.3536 7.52145L17.1679 0.707107C17.5584 0.316583 18.1916 0.316583 18.5821 0.707107L19.2929 1.41789C19.6834 1.80842 19.6834 2.44158 19.2929 2.83211L12.4786 9.64645C12.2833 9.84171 12.2833 10.1583 12.4786 10.3536L19.2929 17.1679C19.6834 17.5584 19.6834 18.1916 19.2929 18.5821L18.5821 19.2929C18.1916 19.6834 17.5584 19.6834 17.1679 19.2929L10.3536 12.4786C10.1583 12.2833 9.84171 12.2833 9.64645 12.4786L2.83211 19.2929Z" fill="#A9A9AC"/>
</svg>
